# xmcd CD database file
#
# Track frame offsets:
#	150
#	7950
#	23807
#	29417
#	44612
#	61327
#	73987
#	93600
#	106810
#	122392
#	153767
#	164672
#	180352
#	201052
#	222850
#
# Disc length: 3075 seconds
#
# Revision: 3
# Processed by: cddbd v1.5.2PL0 Copyright (c) Steve Scherf et al.
# Submitted via: CDex 1.70beta2
#
DISCID=c50c010f
DTITLE=Phillip DeGruy - Innuendo Out The Other
DYEAR=1995
DGENRE=Jazz
TTITLE0=Innuendo Out The Other
TTITLE1=My Girl
TTITLE2=If I Only Had a Brain
TTITLE3=Naima
TTITLE4=They Can't Take That Away From Me
TTITLE5=Dear Sur
TTITLE6=Wave/When the Saints Go Marching In
TTITLE7=When You Wish Upon A Star
TTITLE8=Wolly Bully
TTITLE9=Lazy Bird - BlackBird
TTITLE10=My Bell
TTITLE11=Blues For Rod Sterling
TTITLE12=Freight Train/See You In My Dreams
TTITLE13=Clair De Lune
TTITLE14=Out Of The (Music) Box And Into The (John) Cage
EXTD=YEAR: 1995
EXTT0=
EXTT1=
EXTT2=
EXTT3=
EXTT4=
EXTT5=
EXTT6=
EXTT7=
EXTT8=
EXTT9=
EXTT10=
EXTT11=
EXTT12=
EXTT13=
EXTT14=
PLAYORDER=
